<svg width="144" height="35" viewBox="0 0 144 35" fill="none" xmlns="http://www.w3.org/2000/svg">
<path fill-rule="evenodd" clip-rule="evenodd" d="M0.70092 11.8607C8.04663e-08 13.1412 0 14.6859 0 17.7753V19.8288C0 25.0948 1.60933e-07 27.728 1.58162 29.3639C3.16325 31 5.70883 31 10.8 31H16.2C21.2911 31 23.8368 31 25.4183 29.3639C27 27.728 27 25.0948 27 19.8288V17.7753C27 14.6859 27 13.1412 26.2991 11.8607C25.5982 10.5802 24.3177 9.78544 21.7566 8.19596L19.0566 6.52027C16.3493 4.84009 14.9957 4 13.5 4C12.0043 4 10.6507 4.84009 7.94344 6.52027L5.24344 8.19598C2.68238 9.78544 1.40184 10.5802 0.70092 11.8607ZM10.0529 22.0866C9.6037 21.7536 8.96958 21.8478 8.63659 22.2971C8.30361 22.7464 8.39784 23.3805 8.84708 23.7134C10.1598 24.6865 11.7653 25.2625 13.5 25.2625C15.2347 25.2625 16.8402 24.6865 18.1529 23.7134C18.6022 23.3805 18.6964 22.7464 18.3634 22.2971C18.0305 21.8478 17.3964 21.7536 16.9471 22.0866C15.9637 22.8154 14.777 23.2375 13.5 23.2375C12.223 23.2375 11.0363 22.8154 10.0529 22.0866Z" fill="white"/>
<path d="M36.016 28V8.316H38.676L39.824 12.124V28H36.016ZM49.624 28L37.948 12.88L38.676 8.316L50.352 23.436L49.624 28ZM49.624 28L48.532 24.304V8.316H52.368V28H49.624ZM61.6798 28.28C60.4291 28.28 59.3091 27.972 58.3198 27.356C57.3304 26.74 56.5464 25.9 55.9678 24.836C55.4078 23.772 55.1278 22.5773 55.1278 21.252C55.1278 19.908 55.4078 18.704 55.9678 17.64C56.5464 16.576 57.3211 15.736 58.2918 15.12C59.2811 14.504 60.4104 14.196 61.6798 14.196C62.6504 14.196 63.5184 14.392 64.2838 14.784C65.0678 15.176 65.6931 15.7267 66.1598 16.436C66.6451 17.1267 66.9064 17.9107 66.9438 18.788V23.604C66.9064 24.4813 66.6544 25.2747 66.1878 25.984C65.7211 26.6933 65.0958 27.2533 64.3118 27.664C63.5278 28.0747 62.6504 28.28 61.6798 28.28ZM62.2958 24.892C62.9864 24.892 63.5838 24.7427 64.0878 24.444C64.6104 24.1267 65.0118 23.6973 65.2918 23.156C65.5904 22.596 65.7398 21.952 65.7398 21.224C65.7398 20.5147 65.5904 19.8893 65.2918 19.348C65.0118 18.788 64.6104 18.3587 64.0878 18.06C63.5838 17.7427 62.9958 17.584 62.3238 17.584C61.6331 17.584 61.0264 17.7427 60.5038 18.06C59.9998 18.3773 59.5984 18.8067 59.2998 19.348C59.0198 19.8893 58.8798 20.5147 58.8798 21.224C58.8798 21.952 59.0198 22.596 59.2998 23.156C59.5984 23.6973 60.0091 24.1267 60.5318 24.444C61.0544 24.7427 61.6424 24.892 62.2958 24.892ZM69.1838 28H65.5438V24.36L66.1318 21.056L65.5158 17.808V7.756H69.1838V28ZM78.1967 28.28C77.002 28.28 75.938 28.028 75.0047 27.524C74.09 27.02 73.3714 26.32 72.8487 25.424C72.326 24.528 72.0647 23.492 72.0647 22.316V14.476H75.7607V22.232C75.7607 22.792 75.854 23.2773 76.0407 23.688C76.2274 24.08 76.5074 24.3787 76.8807 24.584C77.254 24.7893 77.6927 24.892 78.1967 24.892C78.962 24.892 79.5594 24.6587 79.9887 24.192C80.418 23.7253 80.6327 23.072 80.6327 22.232V14.476H84.3007V22.316C84.3007 23.5107 84.0394 24.556 83.5167 25.452C83.0127 26.348 82.294 27.048 81.3607 27.552C80.446 28.0373 79.3914 28.28 78.1967 28.28ZM93.6057 28.28C92.2243 28.28 90.983 27.972 89.8817 27.356C88.7803 26.74 87.9123 25.9 87.2777 24.836C86.643 23.772 86.3257 22.5773 86.3257 21.252C86.3257 19.908 86.643 18.704 87.2777 17.64C87.9123 16.576 88.7803 15.736 89.8817 15.12C91.0017 14.4853 92.243 14.168 93.6057 14.168C94.6697 14.168 95.6497 14.364 96.5457 14.756C97.4417 15.148 98.2163 15.708 98.8697 16.436L96.5177 18.816C96.163 18.424 95.7337 18.1253 95.2297 17.92C94.7443 17.7147 94.203 17.612 93.6057 17.612C92.9337 17.612 92.327 17.7707 91.7857 18.088C91.263 18.3867 90.843 18.8067 90.5257 19.348C90.227 19.8707 90.0777 20.496 90.0777 21.224C90.0777 21.9333 90.227 22.568 90.5257 23.128C90.843 23.6693 91.263 24.0987 91.7857 24.416C92.327 24.7147 92.9337 24.864 93.6057 24.864C94.2217 24.864 94.7723 24.7613 95.2577 24.556C95.7617 24.332 96.191 24.0147 96.5457 23.604L98.9257 25.984C98.235 26.7307 97.4417 27.3 96.5457 27.692C95.6497 28.084 94.6697 28.28 93.6057 28.28ZM107.058 28.28C105.695 28.28 104.463 27.972 103.362 27.356C102.279 26.7213 101.411 25.872 100.758 24.808C100.123 23.7253 99.8061 22.5213 99.8061 21.196C99.8061 19.8707 100.123 18.6853 100.758 17.64C101.393 16.576 102.261 15.736 103.362 15.12C104.463 14.4853 105.686 14.168 107.03 14.168C108.411 14.168 109.643 14.4853 110.726 15.12C111.827 15.736 112.695 16.576 113.33 17.64C113.965 18.6853 114.282 19.8707 114.282 21.196C114.282 22.5213 113.965 23.7253 113.33 24.808C112.695 25.872 111.827 26.7213 110.726 27.356C109.643 27.972 108.421 28.28 107.058 28.28ZM107.03 24.864C107.721 24.864 108.327 24.7147 108.85 24.416C109.391 24.0987 109.802 23.6693 110.082 23.128C110.381 22.568 110.53 21.9333 110.53 21.224C110.53 20.5147 110.381 19.8893 110.082 19.348C109.783 18.8067 109.373 18.3867 108.85 18.088C108.327 17.7707 107.721 17.612 107.03 17.612C106.358 17.612 105.761 17.7707 105.238 18.088C104.715 18.3867 104.305 18.8067 104.006 19.348C103.707 19.8893 103.558 20.5147 103.558 21.224C103.558 21.9333 103.707 22.568 104.006 23.128C104.305 23.6693 104.715 24.0987 105.238 24.416C105.761 24.7147 106.358 24.864 107.03 24.864ZM116.644 28V14.476H120.312V28H116.644ZM120.312 20.524L118.884 19.572C119.052 17.9107 119.537 16.604 120.34 15.652C121.142 14.6813 122.3 14.196 123.812 14.196C124.465 14.196 125.053 14.308 125.576 14.532C126.098 14.7373 126.574 15.0827 127.004 15.568L124.708 18.2C124.502 17.976 124.25 17.808 123.952 17.696C123.672 17.584 123.345 17.528 122.972 17.528C122.188 17.528 121.544 17.78 121.04 18.284C120.554 18.7693 120.312 19.516 120.312 20.524ZM135.741 28.28C134.771 28.28 133.893 28.084 133.109 27.692C132.325 27.2813 131.7 26.7307 131.233 26.04C130.767 25.3493 130.515 24.556 130.477 23.66V18.872C130.515 17.976 130.767 17.1827 131.233 16.492C131.719 15.7827 132.344 15.2227 133.109 14.812C133.893 14.4013 134.771 14.196 135.741 14.196C136.992 14.196 138.112 14.504 139.101 15.12C140.091 15.736 140.865 16.576 141.425 17.64C142.004 18.704 142.293 19.908 142.293 21.252C142.293 22.5773 142.004 23.772 141.425 24.836C140.865 25.9 140.091 26.74 139.101 27.356C138.112 27.972 136.992 28.28 135.741 28.28ZM128.237 33.656V14.476H131.905V18.032L131.289 21.308L131.877 24.584V33.656H128.237ZM135.097 24.892C135.769 24.892 136.367 24.7427 136.889 24.444C137.412 24.1267 137.813 23.6973 138.093 23.156C138.392 22.596 138.541 21.952 138.541 21.224C138.541 20.5147 138.392 19.8893 138.093 19.348C137.813 18.788 137.412 18.3587 136.889 18.06C136.367 17.7427 135.769 17.584 135.097 17.584C134.444 17.584 133.856 17.7427 133.333 18.06C132.811 18.3587 132.4 18.788 132.101 19.348C131.821 19.8893 131.681 20.5147 131.681 21.224C131.681 21.952 131.821 22.596 132.101 23.156C132.4 23.6973 132.801 24.1267 133.305 24.444C133.828 24.7427 134.425 24.892 135.097 24.892Z" fill="white"/>
</svg>
